<svg width="24" height="24" viewBox="0 0 24 24" fill="none" xmlns="http://www.w3.org/2000/svg">
<path d="M19.9502 8.31212L21.0588 15.7059M21.0588 15.7059V17.8235C21.0588 18.666 20.7242 19.4739 20.1285 20.0696C19.5328 20.6653 18.7248 21 17.8824 21H5.17647C4.33402 21 3.52607 20.6653 2.93037 20.0696C2.33466 19.4739 2 18.666 2 17.8235V15.7059M21.0588 15.7059H2M2 15.7059L3.31824 6.92082C3.39352 6.41945 3.64619 5.96173 4.03032 5.63084C4.41444 5.29995 4.90454 5.11786 5.41153 5.11765H9.41176M12.5882 3L18.4118 4.58824M15.5 3.79412L13.3824 11.2059" stroke="black" stroke-width="2" stroke-linecap="round" stroke-linejoin="round"/>
<path d="M6.23535 10.9412C8.00006 10.2353 9.76476 10.2353 11.5295 10.9412C13.2942 11.647 15.0589 11.647 16.8236 10.9412" stroke="black" stroke-width="2" stroke-linecap="round" stroke-linejoin="round"/>
</svg>
